<svg width="21" height="21" viewBox="0 0 21 21" fill="none" xmlns="http://www.w3.org/2000/svg">
<g id="log-out-svgrepo-com 1">
<path id="Vector" d="M1.75 5.25C1.75 4.78587 1.93437 4.34075 2.26256 4.01256C2.59075 3.68437 3.03587 3.5 3.5 3.5H11.375C11.8391 3.5 12.2842 3.68437 12.6124 4.01256C12.9406 4.34075 13.125 4.78587 13.125 5.25V7C13.125 7.23206 13.0328 7.45462 12.8687 7.61872C12.7046 7.78281 12.4821 7.875 12.25 7.875C12.0179 7.875 11.7954 7.78281 11.6313 7.61872C11.4672 7.45462 11.375 7.23206 11.375 7V5.25H3.5V15.75H11.375V14C11.375 13.7679 11.4672 13.5454 11.6313 13.3813C11.7954 13.2172 12.0179 13.125 12.25 13.125C12.4821 13.125 12.7046 13.2172 12.8687 13.3813C13.0328 13.5454 13.125 13.7679 13.125 14V15.75C13.125 16.2141 12.9406 16.6592 12.6124 16.9874C12.2842 17.3156 11.8391 17.5 11.375 17.5H3.5C3.03587 17.5 2.59075 17.3156 2.26256 16.9874C1.93437 16.6592 1.75 16.2141 1.75 15.75V5.25ZM15.1314 7.25638C15.2955 7.09234 15.518 7.00019 15.75 7.00019C15.982 7.00019 16.2045 7.09234 16.3686 7.25638L18.9936 9.88138C19.1577 10.0455 19.2498 10.268 19.2498 10.5C19.2498 10.732 19.1577 10.9545 18.9936 11.1186L16.3686 13.7436C16.2036 13.903 15.9826 13.9912 15.7531 13.9892C15.5237 13.9872 15.3043 13.8952 15.142 13.733C14.9798 13.5707 14.8878 13.3513 14.8858 13.1219C14.8838 12.8924 14.972 12.6714 15.1314 12.5064L16.2628 11.375H7.875C7.64294 11.375 7.42038 11.2828 7.25628 11.1187C7.09219 10.9546 7 10.7321 7 10.5C7 10.2679 7.09219 10.0454 7.25628 9.88128C7.42038 9.71719 7.64294 9.625 7.875 9.625H16.2628L15.1314 8.49362C14.9673 8.32954 14.8752 8.10702 14.8752 7.875C14.8752 7.64298 14.9673 7.42046 15.1314 7.25638Z" fill="white"/>
</g>
</svg>
