<svg width="25" height="25" viewBox="0 0 25 25" fill="none" xmlns="http://www.w3.org/2000/svg">
<g id="notification-4-svgrepo-com 1">
<rect width="25" height="25" transform="matrix(-1 0 0 1 25 0)" fill="white"/>
<path id="Vector" d="M12.7856 7.64658C12.3545 7.63175 12.0169 7.27015 12.0318 6.83893C12.0466 6.40771 12.4081 6.07016 12.8394 6.085L12.7856 7.64658ZM17.5433 12.0439L18.3242 12.0679C18.3239 12.077 18.3235 12.0862 18.3229 12.0954L17.5433 12.0439ZM18.8768 15.6033L18.3668 16.1951C18.3528 16.1831 18.3393 16.1706 18.3262 16.1576L18.8768 15.6033ZM19.3338 15.9814L18.8749 16.6137C18.862 16.6043 18.8494 16.5945 18.8371 16.5844L19.3338 15.9814ZM14.8438 18.4897C14.4123 18.4897 14.0625 18.14 14.0625 17.7085C14.0625 17.277 14.4123 16.9272 14.8438 16.9272V18.4897ZM12.7856 6.085C13.2169 6.07016 13.5784 6.40771 13.5933 6.83893C13.6081 7.27015 13.2706 7.63175 12.8394 7.64658L12.7856 6.085ZM8.08177 12.0439L7.30219 12.0953C7.30156 12.0861 7.30115 12.077 7.30083 12.0679L8.08177 12.0439ZM6.74823 15.6022L7.29885 16.1565C7.28573 16.1694 7.27219 16.182 7.25823 16.194L6.74823 15.6022ZM6.29115 15.9804L6.78792 16.5834C6.77583 16.5933 6.76354 16.6029 6.75094 16.612L6.29115 15.9804ZM10.7812 16.9272C11.2127 16.9272 11.5625 17.277 11.5625 17.7085C11.5625 18.14 11.2127 18.4897 10.7812 18.4897V16.9272ZM13.5937 6.86579C13.5937 7.29726 13.244 7.64704 12.8125 7.64704C12.381 7.64704 12.0312 7.29726 12.0312 6.86579H13.5937ZM12.0312 5.2085C12.0312 4.77703 12.381 4.42725 12.8125 4.42725C13.244 4.42725 13.5937 4.77703 13.5937 5.2085H12.0312ZM14.8438 16.9272C15.2752 16.9272 15.625 17.277 15.625 17.7085C15.625 18.14 15.2752 18.4897 14.8438 18.4897V16.9272ZM10.7812 18.4897C10.3498 18.4897 10 18.14 10 17.7085C10 17.277 10.3498 16.9272 10.7812 16.9272V18.4897ZM14.0625 17.7085C14.0625 17.277 14.4123 16.9272 14.8438 16.9272C15.2752 16.9272 15.625 17.277 15.625 17.7085H14.0625ZM10 17.7085C10 17.277 10.3498 16.9272 10.7812 16.9272C11.2127 16.9272 11.5625 17.277 11.5625 17.7085H10ZM12.8394 6.085C15.9871 6.19327 18.4218 8.88767 18.3242 12.0679L16.7624 12.02C16.8348 9.6628 15.0365 7.724 12.7856 7.64658L12.8394 6.085ZM18.3229 12.0954C18.2497 13.2031 18.6566 14.2833 19.4274 15.049L18.3262 16.1576C17.23 15.0685 16.6612 13.5445 16.7637 11.9925L18.3229 12.0954ZM19.3868 15.0115C19.55 15.1521 19.6872 15.2604 19.8306 15.3784L18.8371 16.5844C18.7225 16.49 18.5469 16.3503 18.3668 16.1951L19.3868 15.0115ZM19.7928 15.3491C20.0212 15.515 20.2287 15.7518 20.3834 16.0019C20.5362 16.2488 20.6824 16.5812 20.7011 16.9489C20.7216 17.3511 20.5831 17.7984 20.1715 18.1131C19.8033 18.3947 19.3181 18.4897 18.8047 18.4897V16.9272C18.9748 16.9272 19.0874 16.9106 19.1564 16.893C19.2249 16.8756 19.2371 16.8607 19.2223 16.8719C19.2032 16.8866 19.1749 16.9177 19.1562 16.9624C19.1392 17.0031 19.1407 17.0297 19.1406 17.0285C19.1405 17.0255 19.1384 17.0036 19.1235 16.9626C19.109 16.9225 19.0861 16.8748 19.0547 16.8241C19.0235 16.7736 18.9879 16.7266 18.9527 16.6875C18.9165 16.647 18.8884 16.6234 18.8749 16.6137L19.7928 15.3491ZM18.8047 18.4897H14.8438V16.9272H18.8047V18.4897ZM12.8394 7.64658C10.5885 7.724 8.79031 9.6628 8.8626 12.02L7.30083 12.0679C7.20323 8.88767 9.63792 6.19327 12.7856 6.085L12.8394 7.64658ZM8.86125 11.9926C8.96344 13.5443 8.39469 15.0678 7.29885 16.1565L6.1976 15.048C6.96823 14.2825 7.3751 13.2027 7.30219 12.0953L8.86125 11.9926ZM7.25823 16.194C7.07812 16.3492 6.9025 16.4889 6.78792 16.5834L5.79448 15.3773C5.93781 15.2593 6.075 15.1511 6.23823 15.0105L7.25823 16.194ZM6.75094 16.612C6.73698 16.6221 6.70844 16.6462 6.67198 16.6869C6.63646 16.7265 6.60062 16.7737 6.56906 16.8245C6.5374 16.8756 6.51427 16.9234 6.49958 16.9637C6.48458 17.005 6.4824 17.0269 6.48229 17.0298C6.48219 17.0311 6.48375 17.0041 6.46667 16.9631C6.44792 16.9179 6.41927 16.8866 6.4 16.8718C6.38521 16.8605 6.3974 16.8754 6.46615 16.8929C6.53552 16.9106 6.64854 16.9272 6.81927 16.9272V18.4897C6.30542 18.4897 5.81958 18.3948 5.45115 18.1132C5.03875 17.798 4.90062 17.3499 4.92198 16.9474C4.94146 16.5794 5.08844 16.2472 5.24146 16.0006C5.39646 15.7508 5.60396 15.5143 5.83146 15.3487L6.75094 16.612ZM6.81927 16.9272H10.7812V18.4897H6.81927V16.9272ZM12.0312 6.86579V5.2085H13.5937V6.86579H12.0312ZM14.8438 18.4897H10.7812V16.9272H14.8438V18.4897ZM15.625 17.7085C15.625 19.2718 14.3844 20.5731 12.8125 20.5731V19.0106C13.4844 19.0106 14.0625 18.4464 14.0625 17.7085H15.625ZM12.8125 20.5731C11.2407 20.5731 10 19.2718 10 17.7085H11.5625C11.5625 18.4464 12.1407 19.0106 12.8125 19.0106V20.5731Z" fill="black"/>
<circle id="Ellipse 22" cx="18" cy="7" r="3" fill="#D40000"/>
</g>
</svg>
